<?xml version="1.0"?>
<svg xmlns="http://www.w3.org/2000/svg" xmlns:xlink="http://www.w3.org/1999/xlink" xmlns:svgjs="http://svgjs.com/svgjs" version="1.1" width="512" height="512" x="0" y="0" viewBox="0 0 512 512" style="enable-background:new 0 0 512 512" xml:space="preserve" class=""><g><g xmlns="http://www.w3.org/2000/svg"><path d="m504.5 435h-22.5v-22.5c0-4.142-3.358-7.5-7.5-7.5h-22.5v-292.5c0-4.142-3.358-7.5-7.5-7.5h-26.894l-64.973-64.973c-25.811-25.812-60.13-40.027-96.633-40.027s-70.822 14.215-96.633 40.027l-64.973 64.973h-26.894c-4.142 0-7.5 3.358-7.5 7.5v292.5h-22.5c-4.142 0-7.5 3.358-7.5 7.5v22.5h-22.5c-4.142 0-7.5 3.358-7.5 7.5v62c0 4.142 3.358 7.5 7.5 7.5h497c4.142 0 7.5-3.358 7.5-7.5v-62c0-4.142-3.358-7.5-7.5-7.5zm-429.5-315h22.5c1.989 0 3.897-.79 5.303-2.197l67.17-67.17c22.979-22.978 53.53-35.633 86.027-35.633s63.048 12.655 86.027 35.633l67.17 67.17c1.406 1.407 3.314 2.197 5.303 2.197h22.5v285h-362zm422 377h-482v-47h22.5c4.142 0 7.5-3.358 7.5-7.5v-22.5h422v15h-399.5c-4.142 0-7.5 3.358-7.5 7.5s3.358 7.5 7.5 7.5h429.5z" fill="#ffffff" data-original="#000000" style="" class=""/><path d="m384.5 195h-257c-4.142 0-7.5 3.358-7.5 7.5v150c0 4.142 3.358 7.5 7.5 7.5h257c4.142 0 7.5-3.358 7.5-7.5v-150c0-4.142-3.358-7.5-7.5-7.5zm-33.106 30h-190.788l-15-15h220.787zm-4.394 15v75h-182v-75zm-197-4.394v83.787l-15 15v-113.787zm10.606 94.394h190.787l15 15h-220.787zm201.394-10.606v-83.787l15-15v113.787z" fill="#ffffff" data-original="#000000" style="" class=""/><path d="m187.5 270h137c4.142 0 7.5-3.358 7.5-7.5s-3.358-7.5-7.5-7.5h-137c-4.142 0-7.5 3.358-7.5 7.5s3.358 7.5 7.5 7.5z" fill="#ffffff" data-original="#000000" style="" class=""/><path d="m187.5 300h137c4.142 0 7.5-3.358 7.5-7.5s-3.358-7.5-7.5-7.5h-137c-4.142 0-7.5 3.358-7.5 7.5s3.358 7.5 7.5 7.5z" fill="#ffffff" data-original="#000000" style="" class=""/><path d="m256 165c28.949 0 52.5-23.551 52.5-52.5s-23.551-52.5-52.5-52.5-52.5 23.551-52.5 52.5 23.551 52.5 52.5 52.5zm0-90c20.678 0 37.5 16.822 37.5 37.5s-16.822 37.5-37.5 37.5-37.5-16.822-37.5-37.5 16.822-37.5 37.5-37.5z" fill="#ffffff" data-original="#000000" style="" class=""/></g></g></svg>
