<?xml version="1.0"?>
<svg xmlns="http://www.w3.org/2000/svg" xmlns:xlink="http://www.w3.org/1999/xlink" xmlns:svgjs="http://svgjs.com/svgjs" version="1.1" width="512" height="512" x="0" y="0" viewBox="0 0 512 512" style="enable-background:new 0 0 512 512" xml:space="preserve"><g><g xmlns="http://www.w3.org/2000/svg"><path d="m500.648 30.621c-7.317-7.12-16.981-10.89-27.197-10.606-17.582.482-32.297 13.625-35.706 30.606-17.463 3.192-30.745 18.509-30.745 36.879v23.255c-17.096 3.484-30 18.635-30 36.745v16.96l-73.27-73.27c-12.75-12.749-29.7-19.771-47.73-19.771s-34.98 7.021-47.73 19.771l-56.073 56.073c-2.929 2.93-2.929 7.678 0 10.607 2.93 2.928 7.678 2.928 10.607 0l56.073-56.073c9.916-9.916 23.1-15.378 37.123-15.378s27.207 5.462 37.123 15.378l106.543 106.543c-4.417 1.866-8.552 4.58-12.124 8.151l-104.272 104.273c-12.748 12.749-19.77 29.7-19.77 47.729 0 4.136-3.364 7.5-7.5 7.5s-7.5-3.364-7.5-7.5c0-18.029-7.021-34.98-19.77-47.729l-104.713-104.713c-3.379-3.379-7.282-6.021-11.522-7.872l20.309-20.309c1.406-1.407 2.196-3.314 2.196-5.304v-35.066c0-18.109-12.904-33.262-30-36.747v-23.253c0-18.371-13.282-33.687-30.745-36.879-3.41-16.981-18.125-30.124-35.707-30.606-10.194-.27-19.878 3.486-27.196 10.606-7.321 7.122-11.352 16.668-11.352 26.879v220.706c0 8.619 2.151 17.192 6.222 24.792l63.678 118.864c2.854 5.329 3.44 11.688 1.608 17.447l-13.655 42.916c-.726 2.28-.32 4.77 1.093 6.701 1.412 1.933 3.661 3.074 6.054 3.074h176c4.143 0 7.5-3.357 7.5-7.5v-94.797c2.347.833 4.871 1.29 7.5 1.29s5.153-.458 7.5-1.29v94.797c0 4.143 3.357 7.5 7.5 7.5h176c2.393 0 4.642-1.142 6.054-3.073 1.413-1.932 1.818-4.421 1.093-6.701l-13.655-42.916c-1.832-5.759-1.246-12.118 1.608-17.446l63.679-118.866c4.07-7.599 6.222-16.172 6.222-24.791v-220.707c-.001-10.211-4.032-19.757-11.353-26.879zm-395.648 95.664c8.73 3.096 15 11.437 15 21.215v31.96l-15 15zm-30-59.995c8.729 3.096 15 11.433 15 21.21v118.317c-5.448 1.098-10.55 3.384-15 6.737zm158.5 410.71h-158.243l10.545-33.142c3.055-9.6 2.078-20.198-2.679-29.079l-63.679-118.864c-2.907-5.429-4.444-11.552-4.444-17.709v-220.706c0-6.127 2.419-11.854 6.812-16.128 4.391-4.272 10.198-6.528 16.325-6.363 12.055.331 21.863 10.7 21.863 23.115v184.406c-.014 10.032 3.876 19.445 10.983 26.554l104.713 104.713c2.93 2.927 7.678 2.929 10.607 0 2.929-2.93 2.929-7.678 0-10.607l-104.272-104.271c-8.779-8.78-9.176-23.047-.885-31.806 4.221-4.459 9.918-6.961 16.043-7.045 6.084-.087 11.887 2.256 16.22 6.589l104.714 104.714c9.916 9.915 15.377 23.099 15.377 37.122zm188.5-389.5c0-9.777 6.271-18.114 15-21.21v146.284c-4.51-3.359-9.652-5.548-15-6.585zm-30 91.96v-31.96c0-9.777 6.271-18.114 15-21.21v68.17zm105 98.746c0 6.157-1.537 12.28-4.444 17.708l-63.679 118.866c-4.757 8.88-5.733 19.479-2.679 29.078l10.545 33.142h-158.243v-108.507c0-14.023 5.461-27.207 15.377-37.122l104.272-104.272c8.776-8.778 23.046-9.178 31.803-.886 4.46 4.221 6.962 9.918 7.046 16.043.001.094.002.187.002.28-.003 6.054-2.336 11.686-6.591 15.94l-104.713 104.714c-2.929 2.93-2.929 7.678 0 10.607 2.93 2.928 7.678 2.928 10.607 0l104.713-104.713c7.107-7.108 10.997-16.521 10.983-26.554v-184.406c0-12.415 9.808-22.784 21.862-23.115 6.129-.154 11.936 2.092 16.326 6.363 4.394 4.274 6.813 10.001 6.813 16.128z" fill="#ffffff" data-original="#000000" style=""/><circle cx="256" cy="108.919" r="7.5" fill="#ffffff" data-original="#000000" style=""/><circle cx="226" cy="138.919" r="7.5" fill="#ffffff" data-original="#000000" style=""/><circle cx="286" cy="198.919" r="7.5" fill="#ffffff" data-original="#000000" style=""/></g></g></svg>
