<?xml version="1.0"?>
<svg xmlns="http://www.w3.org/2000/svg" xmlns:xlink="http://www.w3.org/1999/xlink" xmlns:svgjs="http://svgjs.com/svgjs" version="1.1" width="512" height="512" x="0" y="0" viewBox="0 0 512 512" style="enable-background:new 0 0 512 512" xml:space="preserve" class=""><g><g xmlns="http://www.w3.org/2000/svg"><path d="m82.5 437h347c4.142 0 7.5-3.358 7.5-7.5v-182c0-4.142-3.358-7.5-7.5-7.5h-347c-4.142 0-7.5 3.358-7.5 7.5v182c0 4.142 3.358 7.5 7.5 7.5zm33.106-30h280.787l15 15h-310.787zm291.394-10.606v-115.788l15-15v145.787zm-10.606-126.394h-280.788l-15-15h310.787zm-291.394 10.606v42.894c0 4.142 3.358 7.5 7.5 7.5s7.5-3.358 7.5-7.5v-38.5h272v107h-272v-38.5c0-4.142-3.358-7.5-7.5-7.5s-7.5 3.358-7.5 7.5v42.894l-15 15v-145.788z" fill="#ffffff" data-original="#000000" style="" class=""/><path d="m509.803 122.197-28.912-28.912-29.428-73.571c-1.138-2.847-3.896-4.714-6.963-4.714h-377c-3.067 0-5.825 1.867-6.963 4.714l-29.429 73.571-28.911 28.912c-1.407 1.406-2.197 3.314-2.197 5.303v60c0 4.142 3.358 7.5 7.5 7.5h7.5v294.5c0 4.142 3.358 7.5 7.5 7.5h467c4.142 0 7.5-3.358 7.5-7.5v-294.5h7.5c4.142 0 7.5-3.358 7.5-7.5v-60c0-1.989-.79-3.897-2.197-5.303zm-437.225-92.197h366.845l24 60h-414.845zm-31.972 75h430.787l15 15h-460.787zm441.394 377h-452v-287h452zm-467-302v-45h482v45z" fill="#ffffff" data-original="#000000" style="" class=""/></g></g></svg>
